<svg viewBox="0 0 7942 7942" xmlns="http://www.w3.org/2000/svg" xml:space="preserve" style="fill-rule:evenodd;clip-rule:evenodd;stroke-linejoin:round;stroke-miterlimit:2"><path d="M958.5 844.252c-624.715 631.05-471.127 1835.75 293.353 3125.36-751.034 1265.56-926.13 2487.31-293.353 3126.95 624.718 631.829 1816.89 476.2 3092.08-296.511 1252.09 759.12 2460.83 936.097 3093.65 296.511 624.714-631.054 471.514-1835.75-293.354-3125.36 751.034-1265.56 926.13-2487.31 293.354-3126.95-410.081-414.493-1068.57-492.106-1845.3-268.176-130.546 37.257-206.196 175.03-168.952 306.985 37.248 131.563 173.167 208.024 303.713 170.367 622.41-179.302 1101.2-123.026 1363.07 142.049 636.619 643.47-1.155 2459.79-1528.99 4004.45a8500 8500 0 0 1-358.622 341.913c-101.363 91.204-110.2 247.996-19.967 350.449s245.355 111.773 346.718 20.57c129.015-115.658 255.342-236.351 379.363-361.707 355.938-359.768 669.254-735.442 933.805-1113.45 555.979 1027.71 640.454 1910.56 247.656 2307.68-636.619 643.471-2433.6-1.163-3961.81-1545.44-117.111-118.367-229.991-239.459-338.277-362.478-90.229-102.454-245.738-111.773-347.097-20.569-101.363 91.2-110.2 248.383-19.967 350.833a8994 8994 0 0 0 357.856 383.446c355.937 359.769 727.611 676.457 1101.59 943.854-1015.59 561.191-1889.92 647.735-2283.11 250.322-636.623-643.471 1.151-2459.79 1528.99-4004.45 125.552-126.903 253.796-248.383 383.958-364.815l207.731-174.643c241.895-203.752 589.771-215.397 844.338-28.33l225.005 164.944c68.349 50.065 163.958 34.544 213.491-34.541 36.474-51.228 38.779-119.53 5.374-173.092l-155.119-247.608c-161.266-257.702-137.84-591.462 57.595-823.552l179.311-212.285c57.594-68.308 49.533-171.157-18.049-229.368-49.145-42.301-118.257-50.841-175.859-22.123l-403.553 201.806c-223.079 111.773-488.408 92.755-693.826-49.674l-296.422-205.307c-71.033-49.287-167.79-31.047-216.169 40.754-35.326 52.004-36.477 120.306-3.072 173.48l143.598 227.818c172.02 272.445 135.542 628.717-87.928 859.632l-172.4 178.527c-130.929 117.208-259.557 239.851-385.504 367.142-355.938 359.768-669.254 735.442-933.808 1113.45-555.595-1027.32-640.451-1910.57-247.653-2307.68 206.577-208.8 546.383-289.138 993.668-223.159 134.005 19.406 258.793-74.511 278.373-210.35 19.583-135.834-73.722-261.575-208.111-281.368-587.857-86.157-1081.64 29.884-1411.42 363.652l.036.044h.015Zm4215.98 1457.31c-94.839 98.577-92.538 255.756 4.989 351.235a9453 9453 0 0 1 88.315 88.099c185.452 187.448 360.164 381.497 522.578 579.426 86.777 105.563 241.512 119.922 345.95 32.602 104.439-87.711 119.025-244.499 32.251-350.061-172.016-209.579-357.088-414.882-553.294-613.199q-46.649-47.157-93.305-93.146c-97.527-95.472-253.033-93.142-347.492 5.047z" style="fill-opacity:0;fill-rule:nonzero;stroke:#000;stroke-width:175px" fill="none"/></svg>