<svg viewBox="0 0 7942 7942" xmlns="http://www.w3.org/2000/svg" xml:space="preserve" style="fill-rule:evenodd;clip-rule:evenodd;stroke-linejoin:round;stroke-miterlimit:2"><path d="M442.196 441.413c-712.588 712.15-537.396 2071.67 334.617 3527.01-856.676 1428.21-1056.4 2806.97-334.617 3528.81 712.592 713.029 2072.46 537.4 3527.02-334.616 1428.2 856.679 2806.97 1056.4 3528.81 334.616 712.587-712.154 537.837-2071.68-334.617-3527.01 856.675-1428.21 1056.4-2806.97 334.617-3528.81-467.763-467.762-1218.88-555.35-2104.86-302.641-148.908 42.046-235.2 197.525-192.716 346.437 42.487 148.471 197.525 234.759 346.433 192.263 709.958-202.346 1256.1-138.838 1554.8 160.304 726.167 726.167-1.317 2775.91-1744.05 4519.08a9653 9653 0 0 1-409.067 385.854c-115.621 102.925-125.7 279.867-22.775 395.488s279.867 126.137 395.488 23.212c147.162-130.52 291.258-266.725 432.725-408.191 406.004-406.004 763.391-829.959 1065.15-1256.55 634.183 1159.79 730.541 2156.1 282.491 2604.25-726.166 726.167-2775.91-1.313-4519.08-1744.05-133.583-133.579-262.342-270.234-385.858-409.063-102.921-115.621-280.304-126.137-395.921-23.212-115.621 102.921-125.7 280.304-22.775 395.921a10194 10194 0 0 0 408.192 432.725c406.004 406.004 829.958 763.391 1256.55 1065.15-1158.44 633.312-2155.76 730.979-2604.25 282.492-726.17-726.167 1.313-2775.91 1744.06-4519.08 143.212-143.212 289.495-280.304 437.966-411.7l236.95-197.087c275.921-229.938 672.729-243.08 963.104-31.971l256.655 186.141c77.962 56.5 187.02 38.984 243.52-38.979 41.605-57.812 44.234-134.891 6.13-195.337L4549.95 1613.44c-183.95-290.821-157.229-667.475 65.696-929.392l204.533-239.567c65.696-77.087 56.5-193.154-20.587-258.846-56.059-47.737-134.892-57.375-200.596-24.966L4138.679 388.41c-254.458 126.138-557.108 104.675-791.421-56.058L3009.142 100.66c-81.025-55.62-191.392-35.037-246.575 45.992-40.296 58.688-41.609 135.767-3.504 195.775l163.795 257.096c196.217 307.458 154.609 709.517-100.295 970.108l-196.65 201.471c-149.346 132.271-296.067 270.675-439.73 414.325-406.004 406.004-763.391 829.958-1065.16 1256.55-633.746-1159.34-730.537-2156.1-282.487-2604.25 235.633-235.633 623.237-326.296 1133.44-251.838 152.854 21.9 295.196-84.087 317.529-237.383 22.338-153.292-84.091-295.192-237.383-317.529-670.546-97.229-1233.79 33.725-1609.96 410.387l.041.05h.017Zm4809 1644.6c-108.179 111.246-105.554 288.625 5.691 396.375a10756 10756 0 0 1 100.738 99.421c211.537 211.538 410.825 430.525 596.083 653.892 98.984 119.129 275.484 135.333 394.613 36.792 119.129-98.984 135.766-275.921 36.787-395.05-196.212-236.513-407.316-468.2-631.121-692.005a11873 11873 0 0 0-106.429-105.116c-111.246-107.742-288.625-105.113-396.371 5.696z" style="fill:#fff;fill-rule:nonzero"/></svg>