<svg viewBox="0 0 1906 1906" xmlns="http://www.w3.org/2000/svg" xml:space="preserve" style="fill-rule:evenodd;clip-rule:evenodd;stroke-linejoin:round;stroke-miterlimit:2"><path d="M106.127 105.939C-64.894 276.855-22.848 603.14 186.435 952.422c-205.602 342.77-253.536 673.672-80.308 846.914 171.022 171.127 497.39 128.976 846.484-80.308 342.769 205.603 673.672 253.536 846.914 80.308 171.021-170.917 129.081-497.202-80.308-846.483 205.602-342.77 253.536-673.673 80.308-846.914-112.263-112.263-292.53-133.284-505.167-72.634-35.738 10.091-56.448 47.406-46.252 83.145 10.197 35.633 47.406 56.342 83.144 46.143 170.39-48.563 301.464-33.321 373.151 38.473 174.28 174.28-.316 666.218-418.573 1084.58a2317 2317 0 0 1-98.176 92.605c-27.749 24.702-30.168 67.168-5.466 94.917s67.168 30.273 94.917 5.571c35.319-31.325 69.902-64.014 103.854-97.966 97.441-97.441 183.214-199.19 255.637-301.571 152.204 278.349 175.33 517.464 67.798 625.02-174.28 174.28-666.218-.315-1084.58-418.573a2316 2316 0 0 1-92.606-98.175c-24.701-27.749-67.273-30.273-95.021-5.571s-30.168 67.273-5.466 95.021a2447 2447 0 0 0 97.966 103.854c97.441 97.441 199.19 183.214 301.571 255.637-278.026 151.995-517.383 175.435-625.02 67.798-174.281-174.28.315-666.218 418.573-1084.58 34.371-34.371 69.479-67.273 105.112-98.808l56.868-47.301c66.221-55.185 161.455-58.339 231.145-7.673l61.597 44.674c18.711 13.56 44.885 9.356 58.445-9.355 9.985-13.875 10.616-32.374 1.471-46.881l-42.465-67.063c-44.148-69.797-37.735-160.194 15.767-223.054l49.088-57.496c15.767-18.501 13.56-46.357-4.941-62.123a44.13 44.13 0 0 0-48.143-5.992L993.277 93.219c-61.07 30.273-133.706 25.122-189.941-13.454l-81.148-55.606c-19.446-13.349-45.934-8.409-59.178 11.038-9.671 14.085-9.986 32.584-.841 46.986l39.311 61.703c47.092 73.79 37.106 170.284-24.071 232.826l-47.196 48.353c-35.843 31.745-71.056 64.962-105.535 99.438-97.441 97.441-183.214 199.19-255.638 301.572C116.941 547.833 93.711 308.61 201.243 201.054c56.552-56.552 149.577-78.311 272.025-60.441 36.685 5.256 70.847-20.181 76.207-56.972 5.361-36.79-20.182-70.846-56.972-76.207-160.931-23.335-296.109 8.094-386.39 98.493l.01.012Zm1154.16 394.704c-25.963 26.699-25.333 69.27 1.366 95.13a2578 2578 0 0 1 24.177 23.861c50.769 50.769 98.598 103.326 143.06 156.934 23.756 28.591 66.116 32.48 94.707 8.83 28.591-23.756 32.584-66.221 8.829-94.812-47.091-56.763-97.756-112.368-151.469-166.081a2849 2849 0 0 0-25.543-25.228c-26.699-25.858-69.27-25.227-95.129 1.367z" style="fill-rule:nonzero"/></svg>